<mxfile host="app.diagrams.net" modified="2024-04-01T16:33:28.655Z" agent="Mozilla/5.0 (Windows NT 10.0; Win64; x64) AppleWebKit/537.36 (KHTML, like Gecko) Chrome/120.0.0.0 YaBrowser/24.1.0.0 Safari/537.36" version="24.2.1" etag="v0GgBW5f0etNc9dtFoxI" type="github">
  <diagram name="Страница — 1" id="EumX5ANI0scenu6BLaOj">
    <mxGraphModel>
      <root>
        <mxCell id="0" />
        <mxCell id="1" parent="0" />
      </root>
    </mxGraphModel>
  </diagram>
</mxfile>
